<svg width="0" height="0" class="hidden">
  <symbol viewBox="0 0 10 19" xmlns="http://www.w3.org/2000/svg" id="folow_icon-facebook">
    <path d="M6.654 6.226V4.589c0-.246.013-.437.039-.571.026-.135.084-.267.176-.398.09-.13.238-.22.442-.27.204-.05.476-.076.814-.076h1.85V0H7.018C5.309 0 4.08.36 3.333 1.078c-.746.719-1.12 1.777-1.12 3.176v1.972H0V9.5h2.214V19h4.44V9.5h2.955L10 6.226H6.654z"
      ></path>
  </symbol>
  <symbol viewBox="0 0 23 23" xmlns="http://www.w3.org/2000/svg" id="folow_icon-instagram">
    <path d="M6.728.072c2.092-.093 7.268-.098 9.358 0 4.276.197 6.416 2.615 6.603 6.603.093 2.092.099 7.268 0 9.358-.155 3.379-1.743 5.26-3.847 6.076-1.54.597-3.044.597-7.374.597h-.061c-.457 0-.899.003-1.326.006-3.57.027-6.161.046-8.12-1.912-1.944-1.944-1.93-4.48-1.91-8.213.002-.397.005-.807.005-1.232 0-.454-.003-.893-.006-1.317C.024 6.427.006 3.864 1.96 1.909 3.268.602 4.89.16 6.728.072zM12.42 20.66c3.865.009 5.655.013 6.974-1.306 1.325-1.332 1.323-3.103 1.32-7.211v-.79c0-3.031-.013-3.39-.067-4.588-.217-4.798-3.544-4.768-7.968-4.727-.415.004-.84.007-1.271.007l-.043-.028c-3.036 0-3.39.014-4.596.057-4.791.245-4.762 3.404-4.72 7.93.004.433.008.878.008 1.335 0 .538-.006 1.05-.011 1.539-.033 3.017-.056 5.095 1.317 6.462 1.32 1.323 3.105 1.322 7.365 1.319a678.362 678.362 0 0 1 1.692 0zm6.407-15.365a1.362 1.362 0 1 1-2.724 0 1.362 1.362 0 0 1 2.724 0zm-7.421.23a5.828 5.828 0 0 0-5.83 5.829 5.828 5.828 0 0 0 5.83 5.828 5.828 5.828 0 0 0 5.828-5.828 5.828 5.828 0 0 0-5.828-5.83zm0 9.612a3.783 3.783 0 1 1 3.783-3.783 3.781 3.781 0 0 1-3.783 3.783z"
       fill-rule="evenodd"></path>
  </symbol>
  <symbol viewBox="0 0 22 17" xmlns="http://www.w3.org/2000/svg" id="follow_icon-youtube">
    <path d="M18.691 16.328c-2.205.115-4.77.172-7.691.172q-4.383 0-7.691-.172-1.332 0-2.256-1.01-.924-1.01-.924-2.47Q0 10.528 0 8.25q0-1.504.172-4.598 0-1.46.902-2.47Q1.977.172 3.31.172 6.445 0 10.613 0h.774q4.168 0 7.304.172 1.332 0 2.256 1.01c.616.673.924 1.496.924 2.47Q22 5.972 22 8.25q0 2.277-.129 4.598c0 .974-.308 1.797-.924 2.47q-.924 1.01-2.256 1.01zM8.895 3.996v8.465l6.23-4.211-6.23-4.254z"
       fill-rule="evenodd"></path>
  </symbol>
</svg>