<?xml version="1.0" encoding="utf-8"?>
<svg width="22px" height="17px" viewBox="0 0 22 17" version="1.1" xmlns:xlink="http://www.w3.org/1999/xlink" xmlns="http://www.w3.org/2000/svg">
  <desc>Created with Lunacy</desc>
  <path d="M18.6914 16.3281C16.4857 16.4427 13.9219 16.5 11 16.5Q6.61719 16.5 3.30859 16.3281Q1.97656 16.3281 1.05273 15.3184Q0.128906 14.3086 0.128906 12.8477Q0 10.5273 0 8.25Q1.86265e-09 6.74609 0.171875 3.65234Q0.171875 2.19141 1.07422 1.18164Q1.97656 0.171875 3.30859 0.171875Q6.44531 0 10.6133 0L11.3867 0Q15.5547 1.86265e-09 18.6914 0.171875Q20.0234 0.171875 20.9473 1.18164C21.5632 1.85482 21.8711 2.67839 21.8711 3.65234Q22 5.97266 22 8.25Q22 10.5273 21.8711 12.8477C21.8711 13.8216 21.5632 14.6452 20.9473 15.3184Q20.0234 16.3281 18.6914 16.3281ZM8.89453 3.99609L8.89453 12.4609L15.125 8.25L8.89453 3.99609Z" id="ï‰" fill="#FFFFFF" fill-rule="evenodd" stroke="none" />
</svg>