<?xml version="1.0" encoding="utf-8"?>
<svg width="23px" height="23px" viewBox="0 0 23 23" version="1.1" xmlns:xlink="http://www.w3.org/1999/xlink" xmlns="http://www.w3.org/2000/svg">
  <desc>Created with Lunacy</desc>
  <g id="instagram">
    <path d="M6.68375 0.0713566C8.77561 -0.0214045 13.9522 -0.0261372 16.0422 0.0713566C20.3177 0.268237 22.4579 2.68665 22.6453 6.67443C22.738 8.76629 22.7437 13.942 22.6453 16.0329C22.4901 19.4111 20.9018 21.2919 18.7976 22.1087C17.2573 22.7051 15.7535 22.7051 11.4241 22.7051L11.3625 22.7051C10.9061 22.7051 10.4643 22.7084 10.0365 22.7115C6.46648 22.7381 3.87545 22.7573 1.91696 20.7997C-0.0276419 18.8551 -0.0135866 16.3189 0.00709746 12.5867C0.00929803 12.1896 0.0115736 11.779 0.0115736 11.3541C0.0115736 10.9002 0.00848621 10.4614 0.00550062 10.0371C-0.0199069 6.42627 -0.0379398 3.8635 1.91696 1.90859C3.22414 0.60142 4.84556 0.157492 6.68375 0.0713566ZM12.3772 20.6602C16.2421 20.6691 18.0315 20.6732 19.3504 19.3543C20.6759 18.0226 20.6742 16.2518 20.6703 12.1431C20.67 11.8889 20.6698 11.6257 20.6699 11.3532C20.6699 8.32236 20.6575 7.96268 20.6036 6.7653C20.3864 1.96732 17.0594 1.99774 12.6354 2.03818C12.2208 2.04197 11.7966 2.04584 11.3644 2.04584L11.3218 2.01745C8.28624 2.01745 7.93129 2.03165 6.7254 2.07424C1.93489 2.3196 1.9639 5.47858 2.00545 10.0045C2.00942 10.4373 2.01351 10.8826 2.01351 11.339C2.01351 11.8772 2.00791 12.3899 2.00258 12.8781C1.96963 15.8951 1.94693 17.9738 3.31974 19.3401C4.63931 20.6633 6.42471 20.662 10.685 20.659C10.8955 20.6588 11.1122 20.6586 11.3351 20.6586C11.6984 20.6586 12.0454 20.6594 12.3772 20.6602ZM18.7843 5.29532C18.7843 6.04757 18.1745 6.6574 17.4223 6.6574C16.67 6.6574 16.0602 6.04757 16.0602 5.29532C16.0602 4.54307 16.67 3.93325 17.4223 3.93325C18.1745 3.93325 18.7843 4.54307 18.7843 5.29532ZM11.3625 5.52533C8.14142 5.52533 5.5337 8.13589 5.5337 11.3541C5.5337 14.5752 8.14426 17.1829 11.3625 17.1829C14.5836 17.1829 17.1913 14.5724 17.1913 11.3541C17.1913 8.13305 14.5807 5.52533 11.3625 5.52533ZM11.3625 15.1375C9.27159 15.1375 7.57918 13.4441 7.57918 11.3541C7.57918 9.26417 9.27254 7.57081 11.3625 7.57081C13.4525 7.57081 15.1458 9.26417 15.1458 11.3541C15.1468 13.4441 13.4534 15.1375 11.3625 15.1375Z" transform="translate(0.04415404 0.0005805551)" id="Combined-Shape" fill="#25356E" fill-rule="evenodd" stroke="none" />
  </g>
</svg>