<?xml version="1.0" encoding="utf-8"?>
<svg width="10px" height="19px" viewBox="0 0 10 19" version="1.1" xmlns:xlink="http://www.w3.org/1999/xlink" xmlns="http://www.w3.org/2000/svg">
  <desc>Created with Lunacy</desc>
  <g id="facebook-logo">
    <path d="M6.65393 6.22564L6.65393 4.58852C6.65393 4.34276 6.6667 4.1524 6.69265 4.01793C6.7185 3.88326 6.77734 3.75081 6.86864 3.62005C6.9598 3.48938 7.10743 3.39916 7.31128 3.34917C7.51541 3.2991 7.78668 3.27414 8.12534 3.27414L9.97414 3.27414L9.97414 0L7.0185 0C5.30829 0 4.08 0.359275 3.33344 1.07783C2.58697 1.79654 2.21378 2.85518 2.21378 4.25416L2.21378 6.2256L0 6.2256L0 9.49998L2.21364 9.49998L2.21364 19L6.65388 19L6.65388 9.50002L9.60934 9.50002L10 6.22564L6.65393 6.22564Z" id="Path" fill="#25356E" stroke="none" />
  </g>
</svg>