<svg width="0" height="0" class="hidden">
  <symbol viewBox="0 0 20 20" xmlns="http://www.w3.org/2000/svg" id="story_full-view-icon">
    <path d="M11.75 12.75h-4a1 1 0 0 1-1-1v-4a1 1 0 0 1 1-1h4a1 1 0 0 1 1 1v4a1 1 0 0 1-1 1zm3-12h4v4m0-4l-3.602 3.6M4.75 18.75h-4v-4m0 4l3.6-3.601M.75 4.75v-4h4m-4 0l3.6 3.6m14.4 10.4v4h-4m4 0l-3.602-3.601" fill="none" stroke="#FFF" stroke-width="1.5"
      stroke-linecap="round" stroke-linejoin="round"></path>
  </symbol>
  <symbol viewBox="0 0 21 16" xmlns="http://www.w3.org/2000/svg" id="story_sound-icon">
    <g fill="none" stroke="#FFF" stroke-width="1.5" stroke-linecap="round" stroke-linejoin="round">
      <path d="M4.625 4.375l3.98-3.371c.648-.55 1.645-.088 1.645.763v11.966c0 .851-.997 1.313-1.646.763l-3.979-3.371"></path>
      <path d="M4.625 11.125H2.25a1 1 0 0 1-1-1v-4.75a1 1 0 0 1 1-1h2.375m14.953.81l-5 5m5 0l-5-5"></path>
    </g>
  </symbol>
</svg>