<svg version="1" xmlns="http://www.w3.org/2000/svg" width="200" height="200" viewBox="0 0 150.000000 150.000000"><path d="M68 1.8c0 1.9-10.7 18.3-20.1 30.9C42.5 40 38 46.8 38 47.8c0 .9 1.1 4 2.3 6.7C45.4 65.3 61.1 75.6 80 80.4c12.8 3.3 14.5 3.6 29.2 4.3l12.8.6-1.1-3.3c-4-11.3-12.1-24.2-31.6-50.4-6.2-8.2-13.1-18.4-15.5-22.7C69.9 1.8 68-.5 68 1.8z"/><path d="M21.8 58.3C16.8 67.1 13 75.2 13 77c0 .6 2.3 3.2 5 5.9C30.6 95.1 56.1 103 83 103c10.6 0 26.9-2 34.2-4.2 3.9-1.1 3.9-1.2 3.6-5.7l-.3-4.5-9 .3c-20.2.6-42.5-3.8-58.4-11.5-7.6-3.7-11.1-6.2-16.7-11.8-4.8-4.8-7.5-8.5-8.5-11.3L26.5 50l-4.7 8.3z"/><path d="M16.3 100.6c.3 6.4 1.2 12.8 2.2 15.6 1.5 4.3 2.1 4.9 6.8 6.7 11.9 4.4 23.1 6.2 38.4 6.2 25.6.1 49-6.6 65.8-18.6 8.3-5.9 8.9-7 2.1-4-21.7 9.6-56.5 11.1-80.6 3.4-10-3.2-21.9-9.3-28.9-15l-6.4-5.2.6 10.9zM107.8 129.1c-2.7 1-9.4 2.8-15 4-13.7 3-41.7 3.2-55.2.6-4.8-1-9-1.6-9.3-1.4-.8.9 8.7 8.4 14.5 11.5 19.2 10.2 44.8 7.4 61.4-6.9 3.8-3.2 9.9-10.2 8.6-9.8-.2.1-2.4.9-5 2z"/></svg>