<?xml version="1.0" encoding="utf-8"?>
<svg width="36px" height="52px" viewBox="0 0 36 52" version="1.1" xmlns:xlink="http://www.w3.org/1999/xlink" xmlns="http://www.w3.org/2000/svg">
  <desc>Created with Lunacy</desc>
  <g id="olive-oil">
    <path d="M30.1173 23.8648C31.8989 26.0386 33.1471 27.923 34.0451 29.7951C35.1794 32.1597 35.7308 34.4657 35.7306 36.845C35.7306 37.2469 35.7167 37.6519 35.6895 38.0488C35.6611 38.4622 35.3037 38.773 34.8898 38.7456C34.4766 38.7171 34.1646 38.3591 34.193 37.9459C34.218 37.583 34.2306 37.2126 34.2306 36.8449C34.2306 34.2399 33.6312 30.5185 28.957 24.8155C28.5411 24.3081 28.0376 23.6639 27.5066 22.9697L14.0649 22.9697C13.6506 22.9697 13.3149 22.6339 13.3149 22.2197C13.3149 21.8055 13.6506 21.4697 14.0649 21.4697L26.3729 21.4697C25.392 20.1587 24.4576 18.8809 23.9281 18.153C23.673 17.8021 23.4547 17.4253 23.2797 17.0333C22.0903 14.3683 21.4429 11.5482 21.3519 8.6392L14.3328 8.6392C14.2239 11.5751 13.5485 14.4168 12.3212 17.0975C12.1975 17.3677 12.0489 17.6318 11.8671 17.905C11.4495 18.5326 10.4905 19.9617 9.42398 21.4698L11.065 21.4698C11.4793 21.4698 11.815 21.8056 11.815 22.2198C11.815 22.634 11.4793 22.9698 11.065 22.9698L8.34318 22.9698C7.74828 23.7782 7.16408 24.539 6.66148 25.1341C3.05718 29.4012 1.46548 33.0576 1.50058 36.9895C1.54388 41.8441 3.78408 46.3516 7.64698 49.3563C7.93208 49.578 8.29038 49.7001 8.65598 49.7001L27.1026 49.7001C27.4687 49.7001 27.8276 49.5776 28.1131 49.3551C30.8799 47.1994 32.8782 44.1523 33.7398 40.7752C33.8422 40.3738 34.2504 40.1317 34.652 40.2339C35.0534 40.3363 35.2956 40.7447 35.1933 41.146C34.2498 44.8437 32.0628 48.1793 29.035 50.5383C28.4874 50.965 27.801 51.2 27.1026 51.2L8.65598 51.2C7.95838 51.2 7.27298 50.9657 6.72598 50.5402C2.49928 47.2524 0.0479789 42.3182 0.000578936 37.0028C-0.0492211 31.4082 3.12418 26.9973 5.51558 24.1661C7.19308 22.18 9.84538 18.2356 10.6183 17.074C10.756 16.8671 10.8669 16.6706 10.9573 16.4731C12.1989 13.7611 12.8351 10.8719 12.8483 7.8859C12.8501 7.5012 13.1413 7.1855 13.515 7.1441L12.7562 1.8832C12.6879 1.4097 12.8283 0.9307 13.1415 0.5691C13.4548 0.2074 13.9088 0 14.3873 0L21.3437 0C21.8222 0 22.2762 0.2074 22.5894 0.5693C22.9026 0.9309 23.0431 1.4099 22.9747 1.8834L22.215 7.1505C22.368 7.1762 22.5105 7.2482 22.6216 7.3594C22.7622 7.5003 22.8411 7.6914 22.8408 7.8905C22.8361 10.8522 23.4447 13.7226 24.6495 16.422C24.7819 16.7186 24.9474 17.0042 25.1413 17.2707C25.9352 18.362 28.6401 22.0626 30.1173 23.8648ZM14.3864 1.5C14.3306 1.5 14.2947 1.5278 14.2745 1.5511C14.2544 1.5744 14.232 1.6138 14.2399 1.669L15.0289 7.1392L20.7003 7.1392L21.4893 1.669C21.4972 1.6137 21.4748 1.5744 21.4547 1.5511C21.4345 1.5278 21.3987 1.5 21.3428 1.5L14.3864 1.5Z" id="Shape" fill="#7799B6" fill-rule="evenodd" stroke="none" />
    <path d="M21.9629 5.50397C22.0281 5.91307 21.7495 6.29747 21.3404 6.36277C19.0521 6.72797 17.0193 7.67837 15.3162 8.79617C15.6686 9.48637 16.1868 10.6717 16.42 12.0407C17.9695 12.4612 19.02 14.2633 18.8762 16.4069C18.8033 17.4938 18.4231 18.5036 17.8056 19.2504C17.1812 20.0057 16.3507 20.4285 15.5045 20.4285C15.448 20.4285 15.3913 20.4266 15.3348 20.4228C13.5084 20.3002 12.2025 18.3441 12.3618 15.9697C12.4347 14.8829 12.8149 13.873 13.4324 13.1262C13.8495 12.6216 14.3589 12.2658 14.9032 12.0849C14.7105 11.109 14.3553 10.2472 14.079 9.67687C12.0222 11.2582 10.5965 12.9496 9.98351 13.738C10.4461 14.1152 10.8031 14.6556 11.0052 15.3086C11.2917 16.2343 11.2587 17.3128 10.9123 18.3455C10.2767 20.2403 8.79771 21.4688 7.31231 21.4688C7.02891 21.4688 6.74561 21.4242 6.46751 21.3309C4.73211 20.7488 3.96551 18.5254 4.72231 16.2691C5.06871 15.2364 5.69271 14.3561 6.47951 13.7905C7.12711 13.3248 7.85101 13.1077 8.53931 13.1587C8.86561 12.7099 9.76551 11.5355 11.1557 10.1998C10.378 10.2984 9.51101 10.3706 8.60751 10.3786C8.55291 10.3791 8.49851 10.3793 8.44441 10.3793C4.29471 10.3793 1.40371 8.96777 0.0780089 6.29157C-0.0764911 5.97977 0.0038089 5.60267 0.271909 5.38077C2.60311 3.45217 5.87241 3.36317 9.72651 5.12357C11.6713 6.01187 13.2859 7.14557 14.1183 7.77857C14.6923 7.38547 15.3045 7.00737 15.9536 6.65887C15.4473 6.60297 14.9067 6.51877 14.3594 6.39247C11.216 5.66747 9.41981 3.93617 9.16511 1.38617C9.13511 1.08617 9.28761 0.797367 9.55241 0.653067C11.8023 -0.573633 14.2448 -0.0657334 16.6153 2.12227C17.9192 3.32567 18.8453 4.71117 19.2164 5.30967C19.8248 5.13107 20.454 4.98527 21.1041 4.88147C21.5133 4.81607 21.8977 5.09487 21.9629 5.50397ZM10.7422 1.75031C12.2581 1.16151 13.8815 1.64901 15.576 3.20401C16.318 3.88481 16.9335 4.64791 17.3696 5.25161C16.6252 5.23151 15.6477 5.15311 14.6673 4.92401C12.4277 4.40051 11.11 3.33401 10.7422 1.75031ZM12.502 8.46154C10.1989 6.85184 5.20702 3.94984 1.73242 6.16814C4.00162 9.60914 9.74312 8.99324 12.502 8.46154ZM16.65 18.2945C17.0626 17.7954 17.3287 17.0707 17.38 16.3064C17.4796 14.8223 16.7576 13.5144 15.8031 13.4504C15.7784 13.4488 15.7539 13.448 15.7298 13.448C15.1952 13.448 14.7884 13.8406 14.5888 14.082C14.1762 14.5811 13.9101 15.3058 13.8588 16.0701C13.7592 17.5542 14.4813 18.8621 15.4356 18.9261C16.0079 18.9649 16.4415 18.5468 16.65 18.2945ZM9.49053 17.8685C9.01733 19.2787 7.85193 20.2134 6.94483 19.9088C6.03813 19.6046 5.67163 18.1563 6.14463 16.7462C6.38823 16.0199 6.82963 15.3865 7.35533 15.0085C7.56233 14.8596 7.92783 14.6487 8.33563 14.6487C8.45123 14.6487 8.57043 14.6657 8.69023 14.7059C9.23243 14.8877 9.47573 15.4396 9.57253 15.7523C9.76403 16.3708 9.73403 17.1422 9.49053 17.8685Z" transform="translate(6.570313 25.38403)" id="Shape" fill="#7799B6" fill-rule="evenodd" stroke="none" />
  </g>
</svg>