<?xml version="1.0" encoding="UTF-8"?>
<svg width="78px" height="79px" viewBox="0 0 78 79" version="1.1" xmlns="http://www.w3.org/2000/svg" xmlns:xlink="http://www.w3.org/1999/xlink">
    <title>E5580A5B-3854-40BA-870B-4DAFC662FD1C</title>
    <g id="relevant" stroke="none" stroke-width="1" fill="none" fill-rule="evenodd">
        <g id="sanycare-desktop" transform="translate(-382.000000, -3635.000000)" fill="#7799B6">
            <g id="4" transform="translate(346.000000, 3628.000000)">
                <g id="Group-7-Copy" transform="translate(29.000000, 0.000000)">
                    <g id="Group-60" transform="translate(7.000000, 7.000000)">
                        <path d="M14.9818725,20.343897 C15.6808575,19.436697 16.7776875,19.706022 17.7491475,20.454147 C18.6720975,21.165102 19.2608325,22.194207 18.5618475,23.101407 C17.8634925,24.008292 16.7184675,23.701797 15.7952025,22.990527 C14.8237425,22.242402 14.2835175,21.250782 14.9818725,20.343897 M14.6079675,24.532137 C16.3902375,25.904592 18.2600775,25.784262 19.6700175,23.954427 C21.0793275,22.123962 20.7183375,20.285307 18.9360675,18.912852 C17.1383625,17.528112 15.2962425,17.644347 13.8740175,19.490562 C12.4521075,21.336462 12.8099475,23.147082 14.6079675,24.532137" id="Fill-1"></path>
                        <path d="M21.2871015,16.411941 L20.3471415,15.116346 L20.7487665,14.824656 C21.3308865,14.401926 21.9353715,14.113701 22.3218765,14.646681 C22.7921715,15.294636 22.1810715,15.763041 21.6887265,16.120251 L21.2871015,16.411941 Z M23.7160665,19.757241 L22.0727115,17.494281 L22.3927515,17.262126 C22.9588065,16.851681 23.3339715,16.954686 24.3599265,17.712261 L25.4378565,18.507321 L27.0286065,17.352531 L25.3398915,16.199631 C24.5473515,15.710751 24.1989615,15.300306 23.6114865,15.525846 L23.5998315,15.509781 C24.2125065,14.801976 24.2046315,14.031486 23.6508615,13.268871 C22.9364415,12.284811 21.7750365,12.427191 20.7582165,13.164921 L18.0363015,15.141231 L22.1908365,20.864466 L23.7160665,19.757241 Z" id="Fill-3"></path>
                        <polygon id="Fill-5" points="29.882538 16.1507745 27.059193 9.6664995 25.331418 10.4190345 28.154763 16.9033095"></polygon>
                        <path d="M34.8105555,15.080877 C35.4474855,14.959287 36.3197205,14.772492 37.4373405,14.250537 L36.7018155,10.388637 L33.8252355,10.936737 L34.0753455,12.250287 L35.1605205,12.043332 L35.4219705,13.417362 C35.2679355,13.529187 35.0367255,13.614552 34.7878755,13.661802 C33.4343205,13.919472 32.3113455,13.277187 32.0517855,11.913552 C31.7427705,10.291302 32.8578705,9.429462 34.3604205,9.143127 C34.7985855,9.059967 35.4963105,9.040122 36.1379655,9.268812 L35.9990505,7.727202 C35.2729755,7.597422 34.2980505,7.731612 33.8403555,7.818552 C31.2920055,8.303967 29.6423505,9.659727 30.1406805,12.277692 C30.6412155,14.905107 32.9589855,15.433362 34.8105555,15.080877" id="Fill-7"></path>
                        <polygon id="Fill-9" points="41.0028885 7.5098205 39.1195035 7.4370555 38.8448235 14.5037655 40.7282085 14.5768455"></polygon>
                        <polygon id="Fill-11" points="45.178497 10.5496965 45.198027 10.5556815 46.182402 15.8939865 48.424887 16.5646215 50.450022 9.7883415 48.799737 9.2953665 47.453742 13.9050765 47.434212 13.8994065 46.518507 8.6133915 44.217747 7.9257465 42.192612 14.7017115 43.852347 15.1975215"></polygon>
                        <path d="M55.564866,14.3862705 L55.581561,14.3979255 L54.690741,17.1481905 L53.235441,16.1348355 L55.564866,14.3862705 Z M50.793876,17.9035605 L52.114041,16.9831305 L54.292581,18.5004855 L53.861976,20.0402055 L55.558251,21.2214555 L57.363201,13.8602205 L55.467216,12.5403705 L49.222341,16.8092505 L50.793876,17.9035605 Z" id="Fill-13"></path>
                        <polygon id="Fill-15" points="58.993578 25.6718385 60.084738 24.7970835 58.259628 22.5202635 62.686638 18.9714735 61.507593 17.5010535 55.989738 21.9245985"></polygon>
                        <path d="M15.830892,56.6473635 C15.166557,57.1532535 14.109732,57.5413335 13.492962,56.7311535 C12.883122,55.9304235 13.583367,55.0373985 14.229747,54.5450535 C14.857227,54.0671985 15.888222,53.6268285 16.491447,54.4187385 C17.087427,55.2011985 16.485777,56.1484035 15.830892,56.6473635 L15.830892,56.6473635 Z M20.305782,53.2532385 L17.621352,55.2979035 L17.607492,55.2796335 C17.776332,54.5759235 17.659782,53.9890785 17.195157,53.3792385 C16.099902,51.9415785 14.551362,52.2865035 13.259232,53.2708785 C11.975922,54.2486385 11.194722,55.6771635 12.290292,57.1151385 C12.726882,57.6884385 13.290102,58.0506885 14.022162,58.0680135 L14.036022,58.0859685 L13.508397,58.4882235 L14.409297,59.6713635 L21.234717,54.4726035 L20.305782,53.2532385 Z" id="Fill-17"></path>
                        <path d="M21.138516,59.3528355 C21.798756,59.9009355 21.653541,60.6128355 21.213801,61.2141705 L19.206936,59.5475055 C19.764486,58.9846005 20.478276,58.8047355 21.138516,59.3528355 L21.138516,59.3528355 Z M21.668031,62.9589555 C22.983156,61.3754505 23.465736,59.8275405 21.784581,58.4314605 C20.376531,57.2624955 18.782316,57.7677555 17.693046,59.0787855 C16.458246,60.5665305 16.613541,62.1522405 18.109476,63.3946005 C18.743256,63.9206505 19.337976,64.2066705 19.966716,64.3273155 L20.763666,63.3681405 C20.118861,63.2487555 19.450431,63.0509355 18.878391,62.5759155 C18.147906,61.9692255 17.981271,61.1316405 18.534726,60.3570555 L21.668031,62.9589555 Z" id="Fill-19"></path>
                        <path d="M27.1825785,61.9854165 C26.3730285,61.5589065 25.3842435,62.0849565 25.0676685,62.5391865 L25.0475085,62.5284765 L25.6712085,61.3443915 L24.4669635,60.7096665 L21.7207935,65.9219715 L23.0771835,66.6367065 L24.0845535,64.7237115 C24.4792485,63.9746415 25.2046935,62.5980915 26.3078235,63.1792665 C26.5506885,63.3071565 26.7721335,63.4756815 26.8565535,63.6105015 L27.5763285,62.2443465 C27.4556835,62.1290565 27.3142485,62.0547165 27.1825785,61.9854165" id="Fill-21"></path>
                        <path d="M34.817013,64.019088 C34.114248,63.860958 33.293358,64.016253 32.791563,64.630188 C32.628708,63.843318 32.127228,63.413973 31.323663,63.233478 C30.765798,63.107793 30.032478,63.189063 29.404998,63.786933 L29.382948,63.781893 L29.563758,62.978013 L28.168938,62.664273 L26.875863,68.412078 L28.371168,68.748498 L28.998648,65.958228 C29.166858,65.210418 29.555883,64.055313 30.549078,64.278648 C31.408713,64.472058 31.237983,65.230893 31.117653,65.766393 L30.346848,69.192963 L31.842468,69.529068 L32.469948,66.739113 C32.638158,65.991303 33.026868,64.836198 34.020063,65.059848 C34.879383,65.252943 34.708653,66.011463 34.588323,66.546963 L33.817518,69.973533 L35.313138,70.310268 L36.128988,66.683043 C36.417843,65.399733 36.234513,64.338183 34.817013,64.019088" id="Fill-23"></path>
                        <path d="M40.573449,69.0680025 C40.345389,69.3971775 39.987549,69.6170475 39.518514,69.6350025 C38.970099,69.6557925 38.538864,69.4548225 38.519649,68.9517675 C38.485314,68.0486625 39.498669,67.8952575 40.184424,67.8691125 L40.847499,67.8442275 C40.864824,68.3016075 40.812219,68.7271725 40.573449,69.0680025 M42.239484,67.7226375 L42.210819,66.9682125 C42.144669,65.2303575 41.373549,64.5159375 39.578994,64.5842925 C38.926944,64.6088625 38.133459,64.8104625 37.549449,65.1075075 L37.645209,66.4207425 C38.144799,66.0125025 38.786769,65.7362475 39.438504,65.7113625 C40.341609,65.6770275 40.776939,65.9810025 40.812849,66.9297825 L39.966759,66.9615975 C39.326679,66.9861675 38.574144,67.0718475 38.002419,67.3799175 C37.430064,67.6879875 37.026549,68.2187625 37.060254,69.0988725 C37.102464,70.2190125 38.143854,70.8086925 39.184299,70.7690025 C39.881709,70.7425425 40.633299,70.3478475 40.963104,69.6831975 L40.986099,69.6822525 C41.004369,69.8646375 41.019174,70.2533475 41.088159,70.5598425 L42.436989,70.5084975 C42.385329,70.0523775 42.346584,69.6419325 42.318234,69.1965225 C42.290199,68.7624525 42.261849,68.3170425 42.239484,67.7226375" id="Fill-25"></path>
                        <path d="M47.3290335,68.4334035 C46.7645535,68.5805085 46.5134985,68.1612435 46.3868685,67.6739385 L45.6948135,65.0172285 L47.0118285,64.6741935 L46.7292735,63.5890185 L45.4119435,63.9320535 L44.9907885,62.3161035 L43.6315635,63.1785735 L43.9282935,64.3185585 L42.8327235,64.6042635 L43.1149635,65.6894385 L44.2111635,65.4040485 L44.9668485,68.3042535 C45.2610585,69.4335285 46.0901385,69.9857235 47.2528035,69.6830085 C47.6953785,69.5677185 48.0270735,69.4338435 48.3140385,69.2643735 L47.9640735,68.1023385 C47.8349235,68.2425135 47.5948935,68.3641035 47.3290335,68.4334035" id="Fill-27"></path>
                        <path d="M50.126202,63.1509795 C50.881572,62.7446295 51.487632,63.1456245 51.880122,63.7790895 L49.583142,65.0148345 C49.269717,64.2868695 49.370832,63.5576445 50.126202,63.1509795 M52.267257,66.4543845 C51.431247,66.9042045 50.592087,66.7451295 50.081787,65.9415645 L53.668062,64.0121895 C52.692507,62.1990495 51.438492,61.1718345 49.514472,62.2069245 C47.902302,63.0741195 47.773467,64.7414145 48.581127,66.2420745 C49.497147,67.9449645 51.025527,68.3954145 52.737867,67.4743545 C53.463312,67.0837545 53.951877,66.6396045 54.299007,66.1018995 L53.708067,65.0038095 C53.356212,65.5569495 52.922142,66.1022145 52.267257,66.4543845" id="Fill-29"></path>
                        <path d="M54.6660135,60.9441525 C54.3273885,60.5715075 54.5916735,60.1308225 54.8959635,59.8536225 C55.3108185,59.4768825 55.6264485,59.3133975 56.0809935,59.1165225 L55.3804335,58.1926275 C54.9551835,58.4395875 54.5311935,58.6701675 53.9978985,59.1549525 C53.1092835,59.9629275 52.6651335,61.1240175 53.5190985,62.0636625 C54.9504585,63.6380325 56.3918985,61.2613575 57.1690035,62.1162675 C57.5539335,62.5389975 57.1967235,63.0647325 56.9091285,63.3264975 C56.5197885,63.6808725 56.0469735,63.9089325 55.5300585,64.0547775 L56.3087385,65.0470275 C56.8237635,64.7802225 57.3331185,64.4560875 57.7646685,64.0635975 C58.6873035,63.2250675 59.2237485,61.9953075 58.3001685,60.9797475 C56.8691235,59.4050625 55.2969585,61.6384125 54.6660135,60.9441525" id="Fill-31"></path>
                        <path d="M61.957161,57.771693 C61.604991,58.236948 61.148556,58.063068 60.746931,57.759408 L58.557681,56.102193 L59.379201,55.017018 L58.485231,54.340398 L57.663711,55.425888 L56.332206,54.417888 L55.798911,55.937133 L56.738556,56.648403 L56.055006,57.551193 L56.949291,58.227813 L57.632526,57.324708 L60.022431,59.133438 C60.952941,59.837778 61.946136,59.757453 62.671266,58.799538 C62.947206,58.434453 63.124866,58.124493 63.245196,57.813588 L62.250426,57.118383 C62.236251,57.308013 62.122851,57.552768 61.957161,57.771693" id="Fill-33"></path>
                        <path d="M58.8459375,51.7227165 C59.1032925,51.2738415 59.6696625,51.1229565 60.1909875,51.4218915 C60.7151475,51.7227165 60.8676075,52.2859365 60.6102525,52.7348115 C60.3488025,53.1899865 59.7893625,53.3364615 59.2652025,53.0356365 C58.7441925,52.7367015 58.5848025,52.1778915 58.8459375,51.7227165 M59.0774625,53.3619765 C59.7024225,53.7204465 60.5028375,53.5034115 60.8609925,52.8787665 C61.2194625,52.2541215 61.0027425,51.4537065 60.3780975,51.0955515 C59.7531375,50.7367665 58.9530375,50.9538015 58.5945675,51.5784465 C58.2357825,52.2030915 58.4528175,53.0031915 59.0774625,53.3619765" id="Fill-35"></path>
                        <path d="M59.631264,52.127523 L59.505264,52.347078 L59.194674,52.169103 L59.304609,51.977268 C59.366034,51.870798 59.460849,51.741648 59.589369,51.815358 C59.733954,51.898203 59.704974,51.998688 59.631264,52.127523 L59.631264,52.127523 Z M60.246144,52.772328 L59.712534,52.466148 L59.786559,52.337313 L60.492789,52.342353 L60.651234,52.066098 L59.914134,52.085313 C60.010209,51.881823 59.998554,51.691248 59.769234,51.559893 C59.486679,51.397983 59.288229,51.525873 59.104584,51.845598 L58.832739,52.319988 L60.091479,53.042283 L60.246144,52.772328 Z" id="Fill-37"></path>
                        <path d="M21.4076835,27.2130075 L22.0723335,27.6659775 C25.7965785,22.2007275 31.9627035,18.9376425 38.5669935,18.9376425 C45.2994885,18.9376425 51.5317635,22.2993225 55.2377385,27.9302625 L55.9099485,27.4880025 C52.0543485,21.6302625 45.5710185,18.1331325 38.5669935,18.1331325 C31.6962135,18.1331325 25.2815535,21.5275725 21.4076835,27.2130075" id="Fill-39"></path>
                        <path d="M21.7697445,49.639212 L21.0928095,50.073912 C24.9332895,56.057967 31.4654445,59.630382 38.5668045,59.630382 C45.6769845,59.630382 52.2135495,56.050722 56.0524545,50.055327 L55.3748895,49.621572 C51.6849795,55.385127 45.4013595,58.825872 38.5668045,58.825872 C31.7407545,58.825872 25.4615445,55.391742 21.7697445,49.639212" id="Fill-41"></path>
                        <g id="Group-45" transform="translate(0.000000, 0.273735)">
                            <path d="M38.5668675,74.066202 C19.0151325,74.066202 3.1088925,58.159647 3.1088925,38.608227 C3.1088925,19.056177 19.0151325,3.149937 38.5668675,3.149937 C58.1182875,3.149937 74.0248425,19.056177 74.0248425,38.608227 C74.0248425,58.159647 58.1182875,74.066202 38.5668675,74.066202 L38.5668675,74.066202 Z M74.3111775,24.130827 C68.5743975,10.018197 54.7150275,0.041202 38.5668675,0.041202 C17.3009025,0.041202 -0.0001575,17.342262 -0.0001575,38.608227 C-0.0001575,59.873877 17.3009025,77.174937 38.5668675,77.174937 C54.7150275,77.174937 68.5747125,67.197627 74.3114925,53.084997 L74.7291825,52.014312 C76.2827625,47.836467 77.1338925,43.319997 77.1338925,38.608227 C77.1338925,33.896142 76.2827625,29.379357 74.7288675,25.201827 L74.3111775,24.130827 Z" id="Fill-43"></path>
                        </g>
                        <path d="M10.8210375,34.537041 L15.3904275,34.537041 L15.3904275,35.920521 L12.6124425,35.920521 L12.6124425,37.689246 L15.2543475,37.689246 L15.2543475,39.072411 L12.6124425,39.072411 L12.6124425,41.067936 L15.5265075,41.067936 L15.5265075,42.451416 L10.8210375,42.451416 L10.8210375,34.537041 Z M16.7068125,34.537041 L18.7930575,34.537041 L19.8700425,37.020186 L21.0607425,34.537041 L23.0562675,34.537041 L20.9813625,38.256246 L23.2150275,42.451416 L21.1287825,42.451416 L19.8700425,39.616731 L18.4415175,42.451416 L16.4456775,42.451416 L18.7360425,38.256246 L16.7068125,34.537041 Z M27.2637225,34.400961 C28.4427675,34.400961 29.0437875,34.661781 29.3499675,34.786521 L29.2592475,36.328446 C28.9757475,36.170001 28.4994675,35.875161 27.6489675,35.875161 C26.4018825,35.875161 25.6080825,36.884106 25.6080825,38.482731 C25.6080825,40.024971 26.5039425,41.067936 27.6829875,41.067936 C28.5901875,41.067936 29.1231675,40.727736 29.3046075,40.648356 L29.3726475,42.303996 C29.0551275,42.406056 28.3974075,42.587496 27.3884625,42.587496 C25.2225225,42.587496 23.7032775,40.965876 23.7032775,38.460051 C23.7032775,35.557326 25.6534425,34.400961 27.2637225,34.400961 L27.2637225,34.400961 Z M30.7337625,34.537041 L35.3034675,34.537041 L35.3034675,35.920521 L32.5254825,35.920521 L32.5254825,37.689246 L35.1673875,37.689246 L35.1673875,39.072411 L32.5254825,39.072411 L32.5254825,41.067936 L35.4395475,41.067936 L35.4395475,42.451416 L30.7337625,42.451416 L30.7337625,34.537041 Z M36.9027225,34.537041 L38.7624825,34.537041 L38.7624825,41.022891 L41.3817075,41.022891 L41.3817075,42.451416 L36.9027225,42.451416 L36.9027225,34.537041 Z M42.5273625,34.537041 L44.3868075,34.537041 L44.3868075,41.022891 L47.0060325,41.022891 L47.0060325,42.451416 L42.5273625,42.451416 L42.5273625,34.537041 Z M48.1516875,34.537041 L52.7213925,34.537041 L52.7213925,35.920521 L49.9434075,35.920521 L49.9434075,37.689246 L52.5849975,37.689246 L52.5849975,39.072411 L49.9434075,39.072411 L49.9434075,41.067936 L52.8574725,41.067936 L52.8574725,42.451416 L48.1516875,42.451416 L48.1516875,34.537041 Z M54.3206475,34.537041 L56.4976125,34.537041 L58.7993175,40.024971 L58.8223125,40.024971 L58.8223125,34.537041 L60.4549575,34.537041 L60.4549575,42.451416 L58.2553125,42.451416 L55.9762875,36.725346 L55.9536075,36.725346 L55.9536075,42.451416 L54.3206475,42.451416 L54.3206475,34.537041 Z M61.5669075,34.537041 L66.8733975,34.537041 L66.8733975,35.965566 L65.1500325,35.965566 L65.1500325,42.451416 L63.2905875,42.451416 L63.2905875,35.965566 L61.5669075,35.965566 L61.5669075,34.537041 Z M7.4675475,29.706201 C6.6183075,32.619006 6.1539975,35.696241 6.1539975,38.882151 C6.1539975,41.822676 6.5490075,44.670906 7.2769725,47.382741 L7.2769725,47.382741 L69.8567625,47.382741 C70.5844125,44.670906 70.9794225,41.822676 70.9794225,38.882151 C70.9794225,35.696241 70.5154275,32.619006 69.6658725,29.706201 L7.4678625,29.706201 L7.4675475,29.706201 Z" id="Fill-46"></path>
                        <path d="M37.080792,23.5362015 C36.285102,23.5362015 35.998137,25.5320415 35.998137,26.0212365 C35.998137,26.4190815 36.141462,26.6017815 36.441657,26.6017815 C37.237347,26.6017815 37.485252,24.6059415 37.485252,24.1230465 C37.485252,23.7384315 37.341612,23.5428165 37.080792,23.5362015 M37.061262,22.7143665 C38.045952,22.7143665 38.594052,23.3012115 38.594052,24.3643365 C38.594052,26.0083215 37.837422,27.4236165 36.422127,27.4236165 C35.437122,27.4236165 34.889022,26.8301565 34.889022,25.7733315 C34.889022,24.2080965 35.619822,22.7143665 37.061262,22.7143665" id="Fill-48"></path>
                        <path d="M40.7060325,25.231941 C40.2300675,25.231941 40.0407525,25.682076 40.0407525,26.008101 C40.0407525,26.340741 40.1906925,26.640936 40.5951525,26.640936 C41.0125275,26.640936 41.2147575,26.203716 41.2147575,25.838631 C41.2147575,25.505991 41.0386725,25.231941 40.7060325,25.231941 L40.7060325,25.231941 Z M42.4215225,23.868621 C42.1411725,23.679621 41.7823875,23.575356 41.4431325,23.575356 C40.6603575,23.575356 40.3667775,24.096996 40.2363675,24.690771 L40.2495975,24.703686 C40.4713575,24.527601 40.7454075,24.449481 41.0257575,24.449481 C41.7953025,24.449481 42.3235575,24.951591 42.3235575,25.805871 C42.3235575,26.803791 41.6516625,27.423711 40.6537425,27.423711 C39.5906175,27.423711 38.9842425,26.777961 38.9842425,25.747281 C38.9842425,24.188346 39.6495225,22.714461 41.4103725,22.714461 C41.8542075,22.714461 42.3172575,22.825026 42.7018725,23.053401 L42.4215225,23.868621 Z" id="Fill-50"></path>
                        <path d="M30.8921445,53.8494075 C32.5849545,52.6297275 33.3261495,52.1077725 33.3261495,51.5533725 C33.3261495,51.0969375 33.0448545,50.9079375 32.6999295,50.9079375 C32.3487045,50.9079375 31.9269195,51.0641775 31.6204245,51.2402625 L31.7353995,50.2098975 C32.1250545,50.0857875 32.5339245,50.0076675 33.0193395,50.0076675 C33.7602195,50.0076675 34.5140145,50.3727525 34.5140145,51.3120825 C34.5140145,52.4731725 33.4152945,53.1645975 32.5594395,53.7646725 L32.5594395,53.7775875 L34.1309745,53.7775875 L33.9583545,54.6384825 L30.7516545,54.6384825 L30.8921445,53.8494075 Z" id="Fill-52"></path>
                        <path d="M37.1089215,50.829534 C36.3296115,50.829534 36.0486315,52.825374 36.0486315,53.314569 C36.0486315,53.712414 36.1891215,53.895114 36.4830165,53.895114 C37.2623265,53.895114 37.5048765,51.899274 37.5048765,51.416379 C37.5048765,51.031764 37.3643865,50.836149 37.1089215,50.829534 M37.0897065,50.007699 C38.0542365,50.007699 38.5909965,50.594544 38.5909965,51.657669 C38.5909965,53.301654 37.8501165,54.716949 36.4638015,54.716949 C35.4992715,54.716949 34.9628265,54.123489 34.9628265,53.066664 C34.9628265,51.501429 35.6781915,50.007699 37.0897065,50.007699" id="Fill-54"></path>
                        <path d="M38.7135945,53.8494075 C40.4064045,52.6297275 41.1475995,52.1077725 41.1475995,51.5533725 C41.1475995,51.0969375 40.8663045,50.9079375 40.5213795,50.9079375 C40.1701545,50.9079375 39.7483695,51.0641775 39.4418745,51.2402625 L39.5568495,50.2098975 C39.9465045,50.0857875 40.3553745,50.0076675 40.8407895,50.0076675 C41.5816695,50.0076675 42.3354645,50.3727525 42.3354645,51.3120825 C42.3354645,52.4731725 41.2367445,53.1645975 40.3808895,53.7646725 L40.3808895,53.7775875 L41.9524245,53.7775875 L41.7798045,54.6384825 L38.5731045,54.6384825 L38.7135945,53.8494075 Z" id="Fill-56"></path>
                        <path d="M44.930403,50.829534 C44.151093,50.829534 43.870113,52.825374 43.870113,53.314569 C43.870113,53.712414 44.010603,53.895114 44.304498,53.895114 C45.083808,53.895114 45.326358,51.899274 45.326358,51.416379 C45.326358,51.031764 45.185868,50.836149 44.930403,50.829534 M44.911188,50.007699 C45.875718,50.007699 46.412478,50.594544 46.412478,51.657669 C46.412478,53.301654 45.671598,54.716949 44.285283,54.716949 C43.320753,54.716949 42.784308,54.123489 42.784308,53.066664 C42.784308,51.501429 43.499673,50.007699 44.911188,50.007699" id="Fill-58"></path>
                    </g>
                </g>
            </g>
        </g>
    </g>
</svg>