<?xml version="1.0" encoding="utf-8"?>
<svg width="23px" height="32px" viewBox="0 0 23 32" version="1.1" xmlns:xlink="http://www.w3.org/1999/xlink" xmlns="http://www.w3.org/2000/svg">
  <desc>Created with Lunacy</desc>
  <path d="M4.5 13.5L4.5 1.5L6.5 0L8.5 1L8.5 6.75L11.5 6.75L13 8L16.5 9L17 11L19 11L21.5 14L20.5 25.5L17 29.5L8.5 29.5L2.5 25.5L0 20L0.5 14.75L2.5 13L4.5 13.5Z" transform="translate(1 1)" id="Path-14" fill="#FFFFFF" stroke="none" />
  <path d="M18.8182 10.6667L20.0727 10.6667C22.5818 11.3067 23 14.2933 23 15.7867L23 21.12C23 28.5867 20.2818 32 14.2182 32C8.57273 32 6.27273 31.1467 3.55455 28.5867L2.92727 27.7333C1.46364 26.24 0 24.7467 0 21.76L0 20.2667C0 17.7067 0 15.7867 1.25455 14.2933C1.88182 13.6533 2.92727 13.2267 4.18182 13.0133L4.18182 3.84C4.18182 3.84 4.18182 2.13333 5.22727 0.853333C5.85455 0.426667 6.69091 0 7.52727 0C9.61818 0 10.4545 1.70667 10.4545 2.98667L10.4545 6.61333C10.6636 6.4 11.0818 6.4 11.5 6.4C12.7545 6.4 13.3818 6.82667 13.8 7.25333C14.0091 7.68 14.2182 7.89333 14.4273 8.32C14.8455 8.10667 15.2636 8.10667 15.6818 8.10667C16.7273 8.10667 17.5636 8.53333 17.9818 8.96C18.4 9.38667 18.8182 10.24 18.8182 10.6667ZM20.9091 21.3333L20.9091 15.7867C20.9091 15.1467 20.7 13.0133 19.4455 12.5867L19.0273 12.5867C18.8182 12.8 18.6091 13.0133 18.6091 13.2267C18.6091 13.8667 18.1909 14.08 17.5636 14.08C17.1455 14.08 16.7273 13.6533 16.7273 13.0133L16.7273 11.3067C16.7273 11.3067 16.7273 10.6667 16.3091 10.4533C16.3091 10.4533 16.1 10.24 15.6818 10.24C14.8455 10.24 14.6364 10.6667 14.6364 10.88L14.6364 12.3733C14.6364 12.8 14.2182 13.44 13.5909 13.44C12.9636 13.44 12.5455 12.8 12.5455 12.16L12.5455 9.38667C12.5455 8.74667 12.1273 8.53333 11.5 8.53333C10.6636 8.53333 10.4545 9.38667 10.4545 9.6L10.4545 12.3733C10.4545 12.8 10.0364 13.44 9.40909 13.44C8.78182 13.44 8.36364 12.8 8.36364 12.16L8.36364 2.98667C8.36364 2.77333 8.15455 2.13333 7.52728 2.13333C7.10909 2.13333 6.9 2.34667 6.69091 2.34667C6.27273 2.77333 6.27273 3.62667 6.27273 3.84L6.27273 17.4933L4.18182 20.0533C4.18182 20.0533 3.97273 20.2667 3.76364 20.0533C3.55455 19.84 3.55455 19.84 3.55455 19.6267L4.18182 16.4267L4.18182 15.36C3.55455 15.36 2.92728 15.5733 2.71818 15.7867C2.09091 16.64 2.09091 18.1333 2.09091 20.2667L2.09091 21.76C2.09091 23.8933 2.92728 24.7467 4.39091 26.4533L5.22728 27.3067C7.31819 29.44 9.2 30.08 14.2182 30.08C18.1909 30.08 20.9091 28.5867 20.9091 21.3333Z" id="Shape" fill="#171717" fill-rule="evenodd" stroke="none" />
</svg>