<?xml version="1.0" encoding="utf-8"?>
<svg width="142px" height="114px" viewBox="0 0 142 114" version="1.1" xmlns:xlink="http://www.w3.org/1999/xlink" xmlns="http://www.w3.org/2000/svg">
  <desc>Created with Lunacy</desc>
  <path d="M117.655 1.09881L141.422 32.3517C142.324 33.5372 142.153 35.2305 141.032 36.2076L127.462 48.0276L118.437 67.1623C120.914 71.0215 120.484 76.2493 117.143 79.6314C115.186 81.6131 112.603 82.5826 110.031 82.5431C110.071 85.1455 109.112 87.761 107.154 89.7427C105.26 91.6608 102.72 92.7016 100.043 92.6588C100.081 95.2601 99.1223 97.8735 97.1668 99.854C95.2092 101.835 92.6243 102.804 90.0545 102.765C90.0946 105.367 89.1358 107.983 87.1781 109.964C85.2606 111.906 82.7406 112.877 80.2207 112.877C77.7506 112.877 75.2805 111.945 73.3781 110.079L72.7465 109.564L71.2417 111.087C69.3231 113.029 66.8031 114 64.2832 114C61.7633 114 59.2434 113.029 57.3258 111.087C55.653 109.394 54.7094 107.238 54.496 105.023C53.9922 105.102 53.4787 105.144 52.9598 105.144C50.3315 105.144 47.8603 104.108 46.0013 102.227C44.1433 100.345 43.1195 97.8438 43.1195 95.1833C43.1195 95.1153 43.1228 95.0484 43.1238 94.9804C43.0892 94.9815 43.0545 94.9837 43.0188 94.9837C40.3905 94.9837 37.9193 93.9474 36.0602 92.0655C34.2023 90.1847 33.1785 87.6832 33.1785 85.0227C33.1785 84.5072 33.2175 83.9995 33.2933 83.4994C31.1125 83.2779 28.9923 82.3249 27.325 80.6382C23.5635 76.8294 23.4931 70.6804 27.1083 66.7817L14.747 49.9193L0.968697 37.9163C-0.171013 36.9238 -0.327018 35.1943 0.617683 34.0099L26.9057 1.04836C27.7952 -0.0680493 29.3704 -0.329057 30.5665 0.440806L46.2115 10.5126L62.3125 14.9706L77.8297 10.449C78.0789 10.3756 78.3367 10.3196 78.5957 10.3196L98.6088 10.3196L113.954 0.440806C115.17 -0.342217 116.775 -0.0570824 117.655 1.09881ZM29.6759 6.54817L40.9257 13.7895L16.4534 43.9699L6.64666 35.4257L29.6759 6.54817ZM103.539 13.8257L125.592 42.2196L135.401 33.6754L114.794 6.57997L103.539 13.8257ZM114.359 62.7251L83.2932 31.2792C83.2347 31.2189 83.1729 31.1619 83.109 31.1081C82.6616 30.7309 82.1069 30.5028 81.5218 30.4611L66.295 29.3677C65.242 29.2942 64.1954 29.8612 63.6754 30.7901L55.8448 44.7792C55.2825 45.7838 54.3671 46.5065 53.2675 46.8146C52.1689 47.1228 51.0162 46.978 50.0228 46.4089C49.0304 45.8397 48.3164 44.913 48.012 43.7999C47.7076 42.6868 47.8495 41.5199 48.4129 40.5154L58.8663 21.8401L63.1023 20.6064C63.1305 20.5976 63.1576 20.5867 63.1857 20.5779L78.9954 15.9565L98.0975 15.9565L121.945 46.6436L114.359 62.7251ZM107.165 75.645C108.83 77.3306 111.54 77.3317 113.205 75.645C114.87 73.9594 114.87 71.2167 113.206 69.53L80.0907 36.0091L67.6547 35.1164L60.6897 47.5582C59.3939 49.8722 57.2857 51.538 54.7528 52.2476C52.8081 52.7915 50.792 52.7202 48.9253 52.0655C48.5245 51.9251 48.129 51.7584 47.7444 51.5643C47.7325 51.5588 47.7217 51.5534 47.7108 51.5479C47.5646 51.4733 47.4205 51.3954 47.2775 51.3132C44.9905 50.0016 43.3459 47.8674 42.645 45.3023C41.944 42.7383 42.2712 40.0515 43.5669 37.7364L54.2847 18.5918L46.0782 16.3195L20.3286 48.0747L31.0919 62.7559C32.9239 61.0812 35.3474 60.16 37.8142 60.1962C40.1576 60.2291 42.3579 61.0801 44.1075 62.6133C45.868 64.1585 47.0305 66.3189 47.362 68.6537C48.1377 68.4728 48.9416 68.3873 49.7378 68.3982C52.4159 68.4355 54.9066 69.5421 56.7516 71.5139C58.5142 73.399 59.4438 75.9707 59.3842 78.5589C59.4828 78.5578 59.5803 78.5578 59.6778 78.5589C62.357 78.5962 64.8476 79.7027 66.6915 81.6745C68.932 84.0708 69.7932 87.5428 69.076 90.7451C70.5559 90.9556 71.9838 91.5161 73.2178 92.3704C75.5015 93.9539 77.0085 96.4566 77.3768 99.23C77.5686 100.675 77.4429 102.174 77.0161 103.566C76.9359 103.829 76.8536 104.092 76.7517 104.346C76.6597 104.574 76.5221 104.779 76.43 105.006C76.339 105.23 76.3867 105.328 76.5686 105.468C76.7832 105.635 77.0085 105.784 77.2003 105.978C78.8654 107.663 81.5749 107.665 83.2401 105.978C84.9052 104.292 84.9052 101.548 83.2401 99.8628C83.1696 99.7926 83.1046 99.718 83.044 99.6413L76.6207 93.0722C75.5394 91.9657 75.5481 90.1814 76.6412 89.0869C77.7344 87.9913 79.497 88.0012 80.5793 89.1078L87.1868 95.8665C88.8519 97.5521 91.5625 97.5532 93.2288 95.8676C94.8939 94.1821 94.8939 91.4382 93.2288 89.7526C93.1594 89.6824 93.0944 89.6089 93.0338 89.5322L81.1123 77.3394C80.0311 76.2328 80.0398 74.4486 81.1329 73.353C82.226 72.2585 83.9887 72.2673 85.0699 73.3738L97.1766 85.7563C97.9826 86.5733 99.0551 87.023 100.197 87.023C101.338 87.023 102.41 86.5733 103.217 85.7563C104.883 84.0708 104.883 81.3269 103.217 79.6413L103.211 79.6347L85.1132 61.124C84.032 60.0175 84.0407 58.2332 85.1338 57.1387C86.2269 56.0431 87.9896 56.0519 89.0719 57.1584L106.976 75.4728C107.041 75.5266 107.105 75.5836 107.165 75.645ZM34.6584 67.0998L31.2631 70.5367C29.5979 72.2223 29.5979 74.9651 31.2631 76.6518C32.9282 78.3374 35.6377 78.3374 37.3029 76.6518L40.5952 73.319C42.2723 71.6213 42.3568 68.8709 40.7838 67.1875C39.9821 66.331 38.9008 65.8496 37.7373 65.8331C37.6149 65.832 37.4935 65.8386 37.3722 65.8485C37.3484 65.8496 37.3235 65.8496 37.2996 65.8518C36.4481 65.9296 35.6442 66.2564 34.9801 66.8048C34.8696 66.8969 34.7613 66.9956 34.6584 67.0998ZM39.9983 88.0791C39.1912 87.2632 38.747 86.1775 38.747 85.0227C38.747 83.8679 39.1912 82.7822 39.9983 81.9651L46.582 75.3007C47.843 74.0241 49.8256 73.6743 51.4376 74.4518C53.0995 75.2535 54.0345 77.0795 53.7907 78.9164C53.6607 79.8968 53.21 80.8202 52.5189 81.521L46.0392 88.0791C45.2321 88.8961 44.1595 89.3457 43.0187 89.3457C41.878 89.3457 40.8054 88.8961 39.9983 88.0791ZM48.688 95.1833C48.688 96.3381 49.1322 97.4238 49.9393 98.2397C50.7465 99.0568 51.819 99.5064 52.9598 99.5064C54.1006 99.5064 55.1731 99.0568 55.9802 98.2397L62.4588 91.6816C63.1337 90.9984 63.5823 90.1002 63.7242 89.145C63.9831 87.4079 63.1933 85.6642 61.6853 84.7759C60.0342 83.8032 57.8707 84.0971 56.5219 85.4613L49.9393 92.1258C49.1322 92.9428 48.688 94.0285 48.688 95.1833ZM61.2628 107.101C59.5976 105.415 59.5976 102.672 61.2628 100.987L64.6581 97.5499C64.761 97.4457 64.8682 97.3481 64.9787 97.256C64.982 97.2538 64.9841 97.2516 64.9863 97.2494C65.5388 96.7954 66.1878 96.4916 66.8801 96.3589L66.9288 96.3524C67.048 96.3304 67.1693 96.3129 67.2906 96.3019C67.3394 96.2975 67.3882 96.2975 67.438 96.2942C67.451 96.2935 67.4639 96.2928 67.4768 96.2921C67.5633 96.2872 67.6494 96.2823 67.737 96.2833C68.8995 96.2997 69.9818 96.7801 70.7834 97.6377C70.882 97.743 70.9741 97.8526 71.0586 97.9656C72.3392 99.6599 72.1669 102.177 70.5776 103.787L67.3026 107.102C65.6374 108.788 62.9279 108.786 61.2628 107.101Z" id="Shape" fill="#FFFFFF" fill-rule="evenodd" stroke="none" />
</svg>